<svg id="company-logo__5" xmlns="http://www.w3.org/2000/svg" width="126.719" height="29.54" viewBox="0 0 126.719 29.54">
  <path id="Path_105" data-name="Path 105" d="M38.51,11.26h3.21v13H38.51ZM43,19.37c0-3.22,2-5.15,5-5.15s5,1.93,5,5.15-1.93,5.17-5,5.17S43,22.66,43,19.37Zm6.82,0c0-1.77-.69-2.81-1.79-2.81s-1.78,1-1.78,2.81.68,2.8,1.78,2.8,1.81-.99,1.81-2.79Zm4.46,5.56h3.1a1.66,1.66,0,0,0,1.74,1c1.23,0,1.87-.66,1.87-1.64v-1.8H61a3.07,3.07,0,0,1-3,1.75c-2.35,0-3.91-1.79-3.91-4.87s1.49-5,4-5a3.07,3.07,0,0,1,3,1.89H61V14.45h3.18v9.74c0,2.35-2.08,3.82-5.14,3.82-2.78-.01-4.56-1.28-4.74-3.07ZM61,19.37c0-1.57-.72-2.56-1.86-2.56s-1.84,1-1.84,2.56.69,2.48,1.84,2.48S61,21,61,19.37Zm4.45,0c0-3.22,2-5.15,5-5.15s5,1.93,5,5.15-1.94,5.17-5,5.17-4.98-1.88-4.98-5.17Zm6.82,0c0-1.77-.7-2.81-1.79-2.81s-1.78,1-1.78,2.81.68,2.8,1.78,2.8,1.81-.99,1.81-2.79Zm4.48-7.29a1.64,1.64,0,1,1,1.64,1.57,1.58,1.58,0,0,1-1.62-1.56Zm0,2.36H80V24.3H76.8Zm14.94,4.93c0,3.21-1.44,5.07-3.89,5.07a3.07,3.07,0,0,1-3-1.83h-.06v4.86H81.53v-13h3.19v1.76h.06a3.09,3.09,0,0,1,3-1.9c2.52-.02,3.97,1.83,3.97,5.05Zm-3.27,0c0-1.56-.73-2.57-1.86-2.57s-1.84,1-1.85,2.57.72,2.56,1.85,2.56,1.92-.93,1.92-2.55Zm8.75-5.16c2.69,0,4.36,1.27,4.38,3.31H98.62c0-.71-.59-1.15-1.47-1.15s-1.3.34-1.3.85.37.67,1.11.82l2.06.42c2,.42,2.8,1.22,2.8,2.71,0,2-1.85,3.36-4.6,3.36s-4.54-1.32-4.67-3.33h3.11c.09.73.67,1.16,1.61,1.16s1.38-.3,1.38-.83-.3-.62-1.07-.78l-1.86-.39c-1.93-.41-2.94-1.42-2.94-2.93.06-1.96,1.74-3.21,4.45-3.21Zm15.4,10.08h-3.11V22.44h-.06a2.82,2.82,0,0,1-2.87,2.05A3.431,3.431,0,0,1,103,20.78V14.45h3.21v5.64c0,1.16.61,1.79,1.61,1.79a1.643,1.643,0,0,0,1.564-1.186A1.662,1.662,0,0,0,109.43,20V14.45h3.2Zm1.55-9.85h3.12v1.9h.07a2.859,2.859,0,0,1,2.81-2.08,2.561,2.561,0,0,1,2.74,2.09H123a3,3,0,0,1,3-2.09,3.121,3.121,0,0,1,3.23,3.35V24.3H126V18.43c0-1-.47-1.56-1.38-1.56a1.4,1.4,0,0,0-1.41,1.59V24.3h-3.06V18.4c0-1-.49-1.53-1.37-1.53a1.427,1.427,0,0,0-1.377,1.007,1.414,1.414,0,0,0-.053.6V24.3h-3.21Z" transform="translate(-2.52 -2.23)" fill="#394149"/>
  <path id="Path_106" data-name="Path 106" d="M32.16,12.11A9.88,9.88,0,0,0,15,5.43H2.52V31.77H28.87V19.46a9.87,9.87,0,0,0,3.29-7.35Zm-5.07,0a4.82,4.82,0,1,1-1.415-3.4,4.82,4.82,0,0,1,1.415,3.4ZM23.8,26.7H7.59V10.5h4.94a9.554,9.554,0,0,0-.15,1.61A9.9,9.9,0,0,0,22.27,22a9.67,9.67,0,0,0,1.53-.13Z" transform="translate(-2.52 -2.23)" fill="#394149"/>
</svg>
