<svg xmlns="http://www.w3.org/2000/svg" width="118.777" height="27.121" viewBox="0 0 118.777 27.121"><path d="M36.87,10.07h3V22.2h-3Zm4.19,7.55c0-3,1.84-4.79,4.68-4.79s4.68,1.79,4.68,4.79-1.8,4.8-4.68,4.8S41.06,20.67,41.06,17.62Zm6.35,0c0-1.65-.65-2.62-1.67-2.62s-1.66,1-1.66,2.62.63,2.6,1.66,2.6,1.67-.92,1.67-2.59Zm4.14,5.17h2.88a1.55,1.55,0,0,0,1.62.9c1.14,0,1.74-.62,1.74-1.52V20.49h-.06A2.84,2.84,0,0,1,55,22.13c-2.19,0-3.64-1.67-3.64-4.54s1.38-4.68,3.68-4.68a2.87,2.87,0,0,1,2.76,1.76h0V13h3v9.1c0,2.19-1.93,3.55-4.78,3.55-2.65,0-4.3-1.19-4.47-2.85Zm6.25-5.18c0-1.46-.67-2.38-1.73-2.38s-1.71.91-1.71,2.38.64,2.3,1.71,2.3,1.73-.81,1.73-2.29Zm4.13,0c0-3,1.84-4.79,4.68-4.79a4.4,4.4,0,0,1,4.69,4.79c0,3-1.8,4.8-4.69,4.8s-4.68-1.74-4.68-4.79Zm6.35,0c0-1.65-.65-2.62-1.67-2.62S65,16,65,17.63s.63,2.6,1.65,2.6,1.63-.93,1.63-2.6Zm4.16-6.79A1.53,1.53,0,1,1,74,12.31a1.46,1.46,0,0,1-1.56-1.47Zm0,2.2h3V22.2h-3Zm13.89,4.59c0,3-1.33,4.71-3.61,4.71a2.86,2.86,0,0,1-2.8-1.7h-.06v4.52h-3V13h3v1.64h.06a2.87,2.87,0,0,1,2.78-1.77c2.3.04,3.67,1.76,3.67,4.76Zm-3,0c0-1.46-.67-2.39-1.72-2.39s-1.72.94-1.73,2.39.68,2.38,1.73,2.38,1.72-.91,1.72-2.36Zm8.15-4.8c2.49,0,4,1.18,4.07,3.07H92.82c0-.65-.54-1.06-1.37-1.06s-1.2.32-1.2.79.33.62,1,.76l1.92.39c1.83.39,2.61,1.13,2.61,2.52,0,1.9-1.73,3.12-4.28,3.12s-4.22-1.22-4.35-3.09h2.89c.09.68.63,1.08,1.51,1.08s1.28-.29,1.28-.77-.28-.58-1-.73l-1.73-.37c-1.79-.37-2.73-1.32-2.73-2.72.02-1.8,1.63-2.97,4.11-2.97Zm14.31,9.37H102.9V20.47h-.06a2.61,2.61,0,0,1-2.66,1.91,3.19,3.19,0,0,1-3.36-3.45V13h3v5.24c0,1.09.56,1.67,1.49,1.67a1.53,1.53,0,0,0,1.52-1.73V13h3ZM107.24,13h2.9v1.77h.06a2.66,2.66,0,0,1,2.61-1.94,2.39,2.39,0,0,1,2.55,2h.06a2.821,2.821,0,0,1,2.82-2,2.909,2.909,0,0,1,3,3.12V22.2h-3V16.75c0-1-.45-1.46-1.29-1.46a1.309,1.309,0,0,0-1.31,1.48V22.2h-2.85V16.71c0-.92-.45-1.42-1.27-1.42a1.339,1.339,0,0,0-1.33,1.5V22.2h-3Z" transform="translate(-2.471 -2.429)" fill="#394149"/><path d="M28.48,10.62a13.248,13.248,0,0,0-2-3.22A13.53,13.53,0,1,0,7.8,26.72,13.09,13.09,0,0,0,11,28.55a13.39,13.39,0,0,0,5.07,1A13.56,13.56,0,0,0,29.6,16a13.39,13.39,0,0,0-1.12-5.38ZM16.06,5.19a10.71,10.71,0,0,1,4.52,1h0a4.39,4.39,0,0,1-1.08.31,5.73,5.73,0,0,0-4.85,4.85A3,3,0,0,1,11.94,14a5.73,5.73,0,0,0-4.85,4.85,2.91,2.91,0,0,1-.79,1.74h0A10.8,10.8,0,0,1,16.07,5.17ZM7.79,23c.12-.11.24-.21.36-.33a5.48,5.48,0,0,0,1.62-3.23,2.92,2.92,0,0,1,.87-1.82,2.83,2.83,0,0,1,1.81-.86,5.73,5.73,0,0,0,4.85-4.85A2.92,2.92,0,0,1,18.17,10,2.87,2.87,0,0,1,20,9.17a5.48,5.48,0,0,0,3-1.43,10.51,10.51,0,0,1,2.36,2.78.862.862,0,0,1-.13.14,2.87,2.87,0,0,1-1.81.88,5.71,5.71,0,0,0-4.85,4.85,3,3,0,0,1-2.69,2.68A5.76,5.76,0,0,0,11,23.92a3.14,3.14,0,0,1-.49,1.37A10.891,10.891,0,0,1,7.79,23Zm8.27,3.86a10.841,10.841,0,0,1-3-.42,5.779,5.779,0,0,0,.64-2,3,3,0,0,1,2.68-2.68,5.73,5.73,0,0,0,4.86-4.85,3,3,0,0,1,2.68-2.68,5.71,5.71,0,0,0,2.56-1A10.82,10.82,0,0,1,16.06,26.81Z" transform="translate(-2.471 -2.429)" fill="#394149"/></svg>