<svg xmlns="http://www.w3.org/2000/svg" width="148.978" height="14.091" viewBox="0 0 148.978 14.091"><path d="M75.693,16.374h-5.12V2.686h5.12Zm-4.62-.5h4.12V3.186h-4.12Zm11.744.5H77.8V2.686H88.282A6.288,6.288,0,0,1,92.5,3.874a4.609,4.609,0,0,1,1.479,3.817,4.863,4.863,0,0,1-1.089,3.375c-.917,1.052-2.443,1.594-4.535,1.613-.527.014-4.476,0-5.531,0Zm-4.52-.5h4.02v-3.7h.251c.051,0,5.178.016,5.771,0,1.949-.017,3.35-.5,4.169-1.443a4.391,4.391,0,0,0,.96-3.041,4.145,4.145,0,0,0-1.3-3.433,5.827,5.827,0,0,0-3.893-1.072H78.3ZM87.22,9.6H82.283V5.878h4.97a2.111,2.111,0,0,1,1.9.727,2,2,0,0,1,.282,1.153A2.123,2.123,0,0,1,89.2,8.84a2.165,2.165,0,0,1-1.98.76Zm-4.437-.5H87.22c.82,0,1.328-.171,1.553-.523a1.66,1.66,0,0,0,.163-.823A1.552,1.552,0,0,0,88.75,6.9l-.006-.009c-.238-.35-.711-.513-1.491-.513h-4.47ZM103.1,16.576c-4.49,0-7.17-1.115-8.191-3.408a5.935,5.935,0,0,1-.338-1.374l-.044-.288h5.342l.035.21a1.4,1.4,0,0,0,.264.586c.211.255.915.683,3.251.683,2.808,0,2.808-.493,2.808-.758,0-.447-.325-.6-2.615-.844l-.435-.041c-.862-.081-1.952-.184-2.45-.227-4.2-.38-6.075-1.685-6.075-4.23,0-2.673,3.191-4.4,8.13-4.4,4.029,0,6.625,1.062,7.714,3.159a4.871,4.871,0,0,1,.513,1.562l.035.281H105.7l-.022-.226a.852.852,0,0,0-.216-.474c-.2-.268-.832-.711-2.794-.711-2.409,0-2.741.308-2.741.64,0,.443.761.6,3.2.861,1.017.083,2.652.251,3.212.319,3.521.382,5.092,1.655,5.092,4.129C111.428,14.1,109.983,16.576,103.1,16.576Zm-7.989-4.57a4.555,4.555,0,0,0,.257.964c.93,2.089,3.46,3.106,7.732,3.106,3.572,0,7.831-.7,7.831-4.051,0-2.193-1.39-3.279-4.649-3.632-.56-.068-2.185-.235-3.2-.319-2.6-.282-3.657-.432-3.657-1.358,0-.958,1.139-1.14,3.241-1.14,1.661,0,2.734.3,3.189.9a1.487,1.487,0,0,1,.276.506h4.334a4.5,4.5,0,0,0-.41-1.111c-1-1.919-3.443-2.891-7.271-2.891-4.635,0-7.63,1.531-7.63,3.9,0,2.26,1.681,3.376,5.619,3.732.5.043,1.589.146,2.453.228l.438.041c2.127.224,3.065.364,3.065,1.341,0,1.052-1.213,1.258-3.308,1.258-1.938,0-3.162-.291-3.635-.864a1.853,1.853,0,0,1-.324-.615Zm25.816,4.553c-5.22,0-8.1-2.111-8.1-5.945V2.686h5.052v7.928c0,1.315,1.177,2.069,3.228,2.069,1.96,0,3.177-.787,3.177-2.052V2.686h5v8.348c.005,3.511-3.044,5.525-8.36,5.525Zm-7.6-13.373v7.428c0,4.738,4.758,5.445,7.6,5.445,2.938,0,7.865-.653,7.865-5.025V3.186h-4v7.445c0,1.55-1.444,2.552-3.677,2.552-2.334,0-3.728-.96-3.728-2.569V3.186Zm37.145,13.188H145.7v-6.18l-2.7,6.18h-4.159l-2.676-6.168v6.168H131.38V2.686h6.294l3.27,7.547,3.428-7.547h6.106Zm-4.268-.5h3.768V3.186H144.69l-3.762,8.279-3.586-8.279h-5.466V15.874h3.785V7.8l3.5,8.077h3.5L146.2,7.812ZM6.054,2.936H1.5V16.124H14.084V12.613H6.054Zm17.222-.3c-5.813,0-8.87,2.755-8.87,6.8,0,4.57,3.209,6.888,8.87,6.888,6.232,0,8.853-2.688,8.853-6.888,0-4.265-2.957-6.8-8.853-6.8Zm-.017,3.427a9.431,9.431,0,0,1,1.184.069l-5.091,5.091a4.042,4.042,0,0,1-.344-1.732c0-2.069,1.042-3.43,4.251-3.43Zm.017,6.888a9.457,9.457,0,0,1-1.141-.064l5.1-5.1a3.974,3.974,0,0,1,.325,1.7c0,2.013-.96,3.462-4.284,3.462Zm17.876-1.8h4.687a2.141,2.141,0,0,1-.42.89,4.855,4.855,0,0,1-3.461,1.075,4.412,4.412,0,0,1-3.477-1.159,3.733,3.733,0,0,1-.639-2.369,3.647,3.647,0,0,1,.689-2.469c.655-.74,1.764-1.059,3.394-1.059a4.626,4.626,0,0,1,2.94.756,1.8,1.8,0,0,1,.588.84H49.8a4.48,4.48,0,0,0-.387-1.579C48.372,3.96,45.952,2.7,41.837,2.7c-3.579,0-5.981,1.092-7.308,2.739a6.569,6.569,0,0,0-1.277,4.116A6.932,6.932,0,0,0,34.5,13.79c1.311,1.7,3.646,2.536,6.452,2.536a8.062,8.062,0,0,0,5.241-1.478l.118,1.276h3.611V8.312h-8.77ZM60.171,2.633c-5.812,0-8.87,2.755-8.87,6.8,0,4.57,3.208,6.888,8.87,6.888,6.233,0,8.854-2.688,8.854-6.888,0-4.262-2.957-6.8-8.854-6.8ZM60.155,6.06a9.608,9.608,0,0,1,1.153.066L56.237,11.2A4.056,4.056,0,0,1,55.9,9.491c0-2.069,1.042-3.43,4.251-3.43Zm.016,6.888A9.429,9.429,0,0,1,59,12.88l5.117-5.118a3.952,3.952,0,0,1,.337,1.727c0,2.011-.954,3.46-4.283,3.46Z" transform="translate(-1.5 -2.485)" fill="#394149"/></svg>