<svg xmlns="http://www.w3.org/2000/svg" width="26.944" height="21.884" viewBox="0 0 26.944 21.884">
  <path id="icon__twitter" d="M24.175,53.536c.017.239.017.479.017.718A15.6,15.6,0,0,1,8.48,69.966,15.605,15.605,0,0,1,0,67.487a11.426,11.426,0,0,0,1.334.068A11.059,11.059,0,0,0,8.189,65.2a5.532,5.532,0,0,1-5.163-3.83,6.964,6.964,0,0,0,1.043.085,5.84,5.84,0,0,0,1.453-.188,5.523,5.523,0,0,1-4.428-5.42v-.068a5.561,5.561,0,0,0,2.5.7,5.53,5.53,0,0,1-1.71-7.386,15.7,15.7,0,0,0,11.386,5.779A6.234,6.234,0,0,1,13.13,53.6a5.528,5.528,0,0,1,9.557-3.778,10.872,10.872,0,0,0,3.5-1.334,5.507,5.507,0,0,1-2.428,3.043,11.07,11.07,0,0,0,3.18-.855A11.871,11.871,0,0,1,24.175,53.536Z" transform="translate(0 -48.082)" fill="#fff"/>
</svg>
