<svg xmlns="http://www.w3.org/2000/svg" width="195" height="31" viewBox="0 0 195 31">
  <g id="icon__stars" transform="translate(-1175 -5137)">
    <g id="Group_271" data-name="Group 271" transform="translate(-525.627 23.373)">
      <circle id="Ellipse_114" data-name="Ellipse 114" cx="15.5" cy="15.5" r="15.5" transform="translate(1700.627 5113.626)" fill="#09102a"/>
      <path id="icon__star" d="M7.039,19.889l1.847-6.038L4,10.355h6.038L11.944,4l1.907,6.355h6.038L15,13.851l1.847,6.038-4.906-3.734Z" transform="translate(1704.159 5116.491)" fill="#fff"/>
    </g>
    <g id="Group_272" data-name="Group 272" transform="translate(-484.627 23.373)">
      <circle id="Ellipse_114-2" data-name="Ellipse 114" cx="15.5" cy="15.5" r="15.5" transform="translate(1700.627 5113.626)" fill="#09102a"/>
      <path id="icon__star-2" data-name="icon__star" d="M7.039,19.889l1.847-6.038L4,10.355h6.038L11.944,4l1.907,6.355h6.038L15,13.851l1.847,6.038-4.906-3.734Z" transform="translate(1704.159 5116.491)" fill="#fff"/>
    </g>
    <g id="Group_273" data-name="Group 273" transform="translate(-443.627 23.373)">
      <circle id="Ellipse_114-3" data-name="Ellipse 114" cx="15.5" cy="15.5" r="15.5" transform="translate(1700.627 5113.626)" fill="#09102a"/>
      <path id="icon__star-3" data-name="icon__star" d="M7.039,19.889l1.847-6.038L4,10.355h6.038L11.944,4l1.907,6.355h6.038L15,13.851l1.847,6.038-4.906-3.734Z" transform="translate(1704.159 5116.491)" fill="#fff"/>
    </g>
    <g id="Group_274" data-name="Group 274" transform="translate(-402.627 23.373)">
      <circle id="Ellipse_114-4" data-name="Ellipse 114" cx="15.5" cy="15.5" r="15.5" transform="translate(1700.627 5113.626)" fill="#09102a"/>
      <path id="icon__star-4" data-name="icon__star" d="M7.039,19.889l1.847-6.038L4,10.355h6.038L11.944,4l1.907,6.355h6.038L15,13.851l1.847,6.038-4.906-3.734Z" transform="translate(1704.159 5116.491)" fill="#fff"/>
    </g>
    <g id="Group_275" data-name="Group 275" transform="translate(-361.627 23.373)">
      <circle id="Ellipse_114-5" data-name="Ellipse 114" cx="15.5" cy="15.5" r="15.5" transform="translate(1700.627 5113.626)" fill="#09102a"/>
      <path id="icon__star-5" data-name="icon__star" d="M7.039,19.889l1.847-6.038L4,10.355h6.038L11.944,4l1.907,6.355h6.038L15,13.851l1.847,6.038-4.906-3.734Z" transform="translate(1704.159 5116.491)" fill="#fff"/>
    </g>
  </g>
</svg>
