<svg xmlns="http://www.w3.org/2000/svg" width="99.889" height="15.889" viewBox="0 0 99.889 15.889">
  <g id="icon__stars-testimonial" transform="translate(-346.111 -5328.056)">
    <path id="icon__star" d="M7.039,19.889l1.847-6.038L4,10.355h6.038L11.944,4l1.907,6.355h6.038L15,13.851l1.847,6.038-4.906-3.734Z" transform="translate(426.111 5324.056)" fill="#09102a"/>
    <path id="icon__star-2" data-name="icon__star" d="M7.039,19.889l1.847-6.038L4,10.355h6.038L11.944,4l1.907,6.355h6.038L15,13.851l1.847,6.038-4.906-3.734Z" transform="translate(405.111 5324.056)" fill="#09102a"/>
    <path id="icon__star-3" data-name="icon__star" d="M7.039,19.889l1.847-6.038L4,10.355h6.038L11.944,4l1.907,6.355h6.038L15,13.851l1.847,6.038-4.906-3.734Z" transform="translate(384.111 5324.056)" fill="#09102a"/>
    <path id="icon__star-4" data-name="icon__star" d="M7.039,19.889l1.847-6.038L4,10.355h6.038L11.944,4l1.907,6.355h6.038L15,13.851l1.847,6.038-4.906-3.734Z" transform="translate(363.111 5324.056)" fill="#09102a"/>
    <path id="icon__star-5" data-name="icon__star" d="M7.039,19.889l1.847-6.038L4,10.355h6.038L11.944,4l1.907,6.355h6.038L15,13.851l1.847,6.038-4.906-3.734Z" transform="translate(342.111 5324.056)" fill="#09102a"/>
  </g>
</svg>
