<svg xmlns="http://www.w3.org/2000/svg" width="21.004" height="21" viewBox="0 0 21.004 21">
  <path id="icon__instagram" d="M10.43,36.941a5.384,5.384,0,1,0,5.384,5.384A5.376,5.376,0,0,0,10.43,36.941Zm0,8.884a3.5,3.5,0,1,1,3.5-3.5,3.507,3.507,0,0,1-3.5,3.5Zm6.86-9.1a1.256,1.256,0,1,1-1.256-1.256A1.253,1.253,0,0,1,17.29,36.721ZM20.856,38a6.215,6.215,0,0,0-1.7-4.4,6.256,6.256,0,0,0-4.4-1.7c-1.734-.1-6.93-.1-8.664,0A6.247,6.247,0,0,0,1.7,33.59,6.235,6.235,0,0,0,0,37.99c-.1,1.734-.1,6.93,0,8.664a6.215,6.215,0,0,0,1.7,4.4,6.264,6.264,0,0,0,4.4,1.7c1.734.1,6.93.1,8.664,0a6.215,6.215,0,0,0,4.4-1.7,6.256,6.256,0,0,0,1.7-4.4C20.954,44.921,20.954,39.729,20.856,38Zm-2.24,10.52a3.544,3.544,0,0,1-2,2c-1.382.548-4.662.422-6.19.422s-4.812.122-6.19-.422a3.544,3.544,0,0,1-2-2c-.548-1.382-.422-4.662-.422-6.19s-.122-4.812.422-6.19a3.544,3.544,0,0,1,2-2c1.382-.548,4.662-.422,6.19-.422s4.812-.122,6.19.422a3.544,3.544,0,0,1,2,2c.548,1.382.422,4.662.422,6.19S19.164,47.137,18.616,48.515Z" transform="translate(0.075 -31.825)" fill="#fff"/>
</svg>
