<svg id="company-logo__1" xmlns="http://www.w3.org/2000/svg" width="117.678" height="23.615" viewBox="0 0 117.678 23.615">
  <path id="Path_115" data-name="Path 115" d="M44.83,25.2a2.649,2.649,0,0,1-1.67-.48,1.56,1.56,0,0,1-.63-1.31v-9.27a.26.26,0,0,1,.29-.29H44.5c.19,0,.28.1.28.29v8.55c0,.38.17.57.52.57a1.439,1.439,0,0,0,.44-.05c.2,0,.31.06.32.24l.15,1.25a.26.26,0,0,1-.24.31A3.767,3.767,0,0,1,44.83,25.2Z" transform="translate(-7 -6)" fill="#394149"/>
  <path id="Path_116" data-name="Path 116" d="M54.28,24.135a4.71,4.71,0,0,1-6,0,4,4,0,0,1,0-5.63,4.73,4.73,0,0,1,6,0,4.06,4.06,0,0,1,0,5.62Zm-4.42-1.32a2.13,2.13,0,0,0,2.86,0,2.24,2.24,0,0,0,0-2.94,2.13,2.13,0,0,0-2.86,0,2.24,2.24,0,0,0,0,2.94Z" transform="translate(-7 -6)" fill="#394149"/>
  <path id="Path_117" data-name="Path 117" d="M64.66,17.685c.19,0,.28.1.28.29v7.17a3.26,3.26,0,0,1-1.11,2.57,4.2,4.2,0,0,1-2.91,1,4.68,4.68,0,0,1-2.71-.75,3,3,0,0,1-1.31-2c0-.2,0-.29.27-.29h1.68a.37.37,0,0,1,.33.23,1.31,1.31,0,0,0,.61.71,2.339,2.339,0,0,0,1.12.26,1.77,1.77,0,0,0,1.29-.46,1.7,1.7,0,0,0,.47-1.25v-.63a3.35,3.35,0,0,1-2.08.65,3.879,3.879,0,0,1-2.84-1.09,4,4,0,0,1,0-5.56,3.91,3.91,0,0,1,2.84-1.08,3.36,3.36,0,0,1,2.13.69v-.16a.26.26,0,0,1,.28-.29ZM60.78,23.4a1.76,1.76,0,0,0,1.37-.59,2.45,2.45,0,0,0,0-3,1.75,1.75,0,0,0-1.36-.58,1.8,1.8,0,0,0-1.39.59,2.12,2.12,0,0,0-.54,1.5,2.161,2.161,0,0,0,.53,1.49,1.81,1.81,0,0,0,1.39.59Z" transform="translate(-7 -6)" fill="#394149"/>
  <path id="Path_118" data-name="Path 118" d="M73.57,24.135a4.73,4.73,0,0,1-6,0,4.07,4.07,0,0,1,0-5.63,4.74,4.74,0,0,1,6,0,4.06,4.06,0,0,1,0,5.62Zm-4.43-1.32a2.1,2.1,0,0,0,2.87,0,2.27,2.27,0,0,0,0-2.94,2.1,2.1,0,0,0-2.87,0,2.27,2.27,0,0,0,0,2.94Z" transform="translate(-7 -6)" fill="#394149"/>
  <path id="Path_119" data-name="Path 119" d="M78.31,15.985a1.45,1.45,0,0,1-1.91,0,1.21,1.21,0,0,1,0-1.76,1.48,1.48,0,0,1,1.91,0,1.21,1.21,0,0,1,0,1.76Zm.21,9.22a2.689,2.689,0,0,1-1.67-.48,1.58,1.58,0,0,1-.62-1.31v-5.44a.26.26,0,0,1,.29-.29H78.2c.19,0,.28.1.28.29v4.72q0,.57.51.57a1.548,1.548,0,0,0,.45-.05c.2,0,.31.06.32.24l.15,1.25a.26.26,0,0,1-.24.31A3.786,3.786,0,0,1,78.52,25.2Z" transform="translate(-7 -6)" fill="#394149"/>
  <path id="Path_120" data-name="Path 120" d="M86.09,17.445a3.92,3.92,0,0,1,2.86,1.08,4.1,4.1,0,0,1,0,5.59,3.89,3.89,0,0,1-2.86,1.09,3.439,3.439,0,0,1-2.09-.65v3.61c0,.19-.1.28-.29.28H82.03a.24.24,0,0,1-.28-.28v-8.2a.52.52,0,0,0-.59-.59h-.33q-.33,0-.33-.24v-1.18a.32.32,0,0,1,.23-.33,3,3,0,0,1,1.08-.18,1.85,1.85,0,0,1,1.81,1,3.37,3.37,0,0,1,2.47-1Zm-1.56,5.37a1.91,1.91,0,0,0,2.76,0,2.16,2.16,0,0,0,.55-1.53,2.13,2.13,0,0,0-.55-1.53,1.91,1.91,0,0,0-2.76,0,2.211,2.211,0,0,0-.53,1.53A2.24,2.24,0,0,0,84.53,22.815Z" transform="translate(-7 -6)" fill="#394149"/>
  <path id="Path_121" data-name="Path 121" d="M94.77,25.2a4.82,4.82,0,0,1-2.57-.62,2.44,2.44,0,0,1-1.16-1.77c0-.2.07-.3.29-.3H92.8a.38.38,0,0,1,.33.22c.21.54.76.81,1.64.81a1.869,1.869,0,0,0,.89-.18.58.58,0,0,0,.34-.49c0-.26-.16-.44-.48-.56a5.409,5.409,0,0,0-1.17-.25,11.13,11.13,0,0,1-1.4-.25,2.3,2.3,0,0,1-1.17-.67,2.14,2.14,0,0,1,.43-3.1,4.121,4.121,0,0,1,2.42-.64,4.421,4.421,0,0,1,2.36.59,2.23,2.23,0,0,1,1.1,1.57q0,.3-.27.3H96.34a.31.31,0,0,1-.3-.18,1,1,0,0,0-.52-.53,1.761,1.761,0,0,0-.86-.2,1.741,1.741,0,0,0-.85.17.5.5,0,0,0-.32.46.64.64,0,0,0,.48.59,5.415,5.415,0,0,0,1.19.3,13.112,13.112,0,0,1,1.39.26,2.3,2.3,0,0,1,1.17.67,1.89,1.89,0,0,1,.49,1.37,2,2,0,0,1-.93,1.74A4.369,4.369,0,0,1,94.77,25.2Z" transform="translate(-7 -6)" fill="#394149"/>
  <path id="Path_122" data-name="Path 122" d="M108.78,24.7a.274.274,0,0,1,0,.107.269.269,0,0,1-.046.1.263.263,0,0,1-.079.072.269.269,0,0,1-.1.035,3.858,3.858,0,0,1-1.13.19,2.22,2.22,0,0,1-2-.87,3.62,3.62,0,0,1-2.55.87,3.1,3.1,0,0,1-2.34-.91,3.28,3.28,0,0,1-.89-2.41v-3.91c0-.19.09-.29.28-.29h1.68c.19,0,.28.1.28.29v3.61a1.769,1.769,0,0,0,.43,1.23,1.5,1.5,0,0,0,1.15.47,1.66,1.66,0,0,0,1.2-.44,1.6,1.6,0,0,0,.45-1.19v-3.68c0-.19.09-.29.28-.29h1.7c.19,0,.28.1.28.29v4.71c0,.39.17.58.5.58a1.578,1.578,0,0,0,.46-.05.26.26,0,0,1,.223.04.265.265,0,0,1,.077.088.273.273,0,0,1,.03.112Z" transform="translate(-7 -6)" fill="#394149"/>
  <path id="Path_123" data-name="Path 123" d="M124.67,24.7a.252.252,0,0,1,0,.109.262.262,0,0,1-.045.1.246.246,0,0,1-.083.071.244.244,0,0,1-.1.029,3.878,3.878,0,0,1-1.15.19,2.669,2.669,0,0,1-1.67-.48,1.561,1.561,0,0,1-.67-1.31v-2.35a1.77,1.77,0,0,0-.42-1.23,1.419,1.419,0,0,0-1.12-.47,1.249,1.249,0,0,0-1,.44,1.779,1.779,0,0,0-.38,1.18v3.69c0,.19-.09.29-.28.29h-1.69a.262.262,0,0,1-.216-.074.261.261,0,0,1-.062-.1.256.256,0,0,1-.012-.117v-3.61a1.851,1.851,0,0,0-.39-1.23,1.3,1.3,0,0,0-1-.47,1.451,1.451,0,0,0-1.1.44,1.651,1.651,0,0,0-.41,1.18v3.69a.256.256,0,0,1-.012.117.261.261,0,0,1-.161.161.264.264,0,0,1-.117.012h-1.63c-.19,0-.28-.1-.28-.29v-4.71a.52.52,0,0,0-.147-.443.52.52,0,0,0-.443-.147h-.33q-.33,0-.33-.24v-1.18a.321.321,0,0,1,.23-.33,3,3,0,0,1,1.08-.18,1.879,1.879,0,0,1,1.78.92,3.38,3.38,0,0,1,2.54-.92,2.869,2.869,0,0,1,2.37,1.06,3.3,3.3,0,0,1,2.62-1.06,3.162,3.162,0,0,1,2.37.91,3.265,3.265,0,0,1,.89,2.41v1.93c0,.38.17.57.49.57a1.5,1.5,0,0,0,.46-.05q.311,0,.33.24Z" transform="translate(-7 -6)" fill="#394149"/>
  <path id="Path_124" data-name="Path 124" d="M7.41,16.385a13.69,13.69,0,0,1,26.57,0h-1.2a9.69,9.69,0,0,0-5.67,1.73,2.856,2.856,0,0,1-.3.19h-.14a2.856,2.856,0,0,1-.3-.19,10.17,10.17,0,0,0-11.35,0,2.856,2.856,0,0,1-.3.19h-.14a2.856,2.856,0,0,1-.3-.19,9.69,9.69,0,0,0-5.67-1.73Zm23.21,6.27a3.37,3.37,0,0,1,2.16-.71h1.61v-3.21H32.78a6.38,6.38,0,0,0-3.83,1.22,3.64,3.64,0,0,1-4.32,0,6.8,6.8,0,0,0-7.77,0,3.64,3.64,0,0,1-4.32,0,6.38,6.38,0,0,0-3.88-1.22H7v3.21H8.61a3.37,3.37,0,0,1,2.16.71,6.78,6.78,0,0,0,7.76,0,3.391,3.391,0,0,1,2.16-.71,3.35,3.35,0,0,1,2.16.71,6.8,6.8,0,0,0,7.77,0Zm0,5.74a3.37,3.37,0,0,1,2.16-.71h1.61v-3.21H32.78a6.38,6.38,0,0,0-3.83,1.22,3.64,3.64,0,0,1-4.32,0,6.8,6.8,0,0,0-7.77,0,3.64,3.64,0,0,1-4.32,0,6.381,6.381,0,0,0-3.88-1.22H7v3.21H8.61a3.37,3.37,0,0,1,2.16.71,6.78,6.78,0,0,0,7.76,0,3.391,3.391,0,0,1,2.16-.71,3.35,3.35,0,0,1,2.16.71,6.8,6.8,0,0,0,7.77,0Z" transform="translate(-7 -6)" fill="#394149"/>
</svg>
