<svg xmlns="http://www.w3.org/2000/svg" width="113.952" height="22" viewBox="0 0 113.952 22">
  <g id="logo__visualisera" transform="translate(-213.952 238)">
    <path id="Path_140" data-name="Path 140" d="M2.336-10.976l2.352,6.7q.144.384.432,1.264.208.656.24.72h.08q.416-1.376.64-2l2.336-6.688h2.112L6.528,0H4.144L.128-10.976Zm11.056-.592V-9.68H11.5v-1.888Zm.032,3.152V0H11.5V-8.416ZM18.832.192a4.394,4.394,0,0,1-2.7-.72A2.242,2.242,0,0,1,15.184-2.4a1.446,1.446,0,0,1,.008-.192.491.491,0,0,0,.008-.064h1.872v.128a1.019,1.019,0,0,0,.536.92,2.606,2.606,0,0,0,1.3.3,2.816,2.816,0,0,0,1.2-.232.744.744,0,0,0,.5-.7.752.752,0,0,0-.272-.6,2.029,2.029,0,0,0-.672-.368q-.4-.136-1.136-.312A13.919,13.919,0,0,1,16.9-4a2.678,2.678,0,0,1-1.08-.752A1.967,1.967,0,0,1,15.376-6.1a2.1,2.1,0,0,1,.992-1.856,4.591,4.591,0,0,1,2.576-.656,4.942,4.942,0,0,1,1.744.288,2.733,2.733,0,0,1,1.192.808A1.833,1.833,0,0,1,22.3-6.32l-.016.352H20.416v-.064a.89.89,0,0,0-.408-.776,2.071,2.071,0,0,0-1.176-.28,2.232,2.232,0,0,0-1.136.232.687.687,0,0,0-.384.6.7.7,0,0,0,.472.664,7.449,7.449,0,0,0,1.448.424,12.945,12.945,0,0,1,1.7.488,2.917,2.917,0,0,1,1.128.776,2.036,2.036,0,0,1,.48,1.424,2.235,2.235,0,0,1-1,2.032A4.989,4.989,0,0,1,18.832.192Zm8.08,0q-2.72,0-2.72-2.928v-5.68h1.92v5.344A1.633,1.633,0,0,0,26.5-1.84a1.637,1.637,0,0,0,1.16.368,1.775,1.775,0,0,0,1.344-.576,2.058,2.058,0,0,0,.544-1.472v-4.9h1.92V0H29.888l-.16-1.12h-.112a3.223,3.223,0,0,1-1.144.968A3.409,3.409,0,0,1,26.912.192Zm8.848,0a3.471,3.471,0,0,1-1.848-.5,2.006,2.006,0,0,1-.824-1.864,2.316,2.316,0,0,1,1.376-2.272,9.3,9.3,0,0,1,3.9-.656v-.7a1.335,1.335,0,0,0-.312-.944,1.508,1.508,0,0,0-1.128-.336,2.009,2.009,0,0,0-1.2.272.821.821,0,0,0-.352.672v.224H33.52a2.537,2.537,0,0,1-.016-.352,1.954,1.954,0,0,1,.936-1.712,4.42,4.42,0,0,1,2.488-.624,3.913,3.913,0,0,1,2.52.688,2.4,2.4,0,0,1,.84,1.968v4.016a.526.526,0,0,0,.16.424.6.6,0,0,0,.4.136h.512V-.064a2.8,2.8,0,0,1-1.2.24,1.716,1.716,0,0,1-1.04-.3,1.477,1.477,0,0,1-.56-.832h-.112A3.278,3.278,0,0,1,35.76.192Zm.576-1.536a2.011,2.011,0,0,0,1.488-.544,1.989,1.989,0,0,0,.544-1.472v-.384a7.918,7.918,0,0,0-2.432.3,1.1,1.1,0,0,0-.88,1.08Q35.056-1.344,36.336-1.344Zm8.192-10.224V0h-1.92V-11.568Zm4.112,0V-9.68H46.752v-1.888Zm.032,3.152V0h-1.92V-8.416ZM54.08.192a4.394,4.394,0,0,1-2.7-.72A2.242,2.242,0,0,1,50.432-2.4a1.446,1.446,0,0,1,.008-.192.491.491,0,0,0,.008-.064H52.32v.128a1.019,1.019,0,0,0,.536.92,2.606,2.606,0,0,0,1.3.3,2.816,2.816,0,0,0,1.2-.232.744.744,0,0,0,.5-.7.752.752,0,0,0-.272-.6,2.029,2.029,0,0,0-.672-.368q-.4-.136-1.136-.312A13.919,13.919,0,0,1,52.152-4a2.678,2.678,0,0,1-1.08-.752A1.967,1.967,0,0,1,50.624-6.1a2.1,2.1,0,0,1,.992-1.856,4.591,4.591,0,0,1,2.576-.656,4.942,4.942,0,0,1,1.744.288,2.733,2.733,0,0,1,1.192.808,1.833,1.833,0,0,1,.424,1.192l-.016.352H55.664v-.064a.89.89,0,0,0-.408-.776,2.071,2.071,0,0,0-1.176-.28,2.232,2.232,0,0,0-1.136.232.687.687,0,0,0-.384.6.7.7,0,0,0,.472.664,7.449,7.449,0,0,0,1.448.424,12.946,12.946,0,0,1,1.7.488,2.917,2.917,0,0,1,1.128.776,2.036,2.036,0,0,1,.48,1.424,2.235,2.235,0,0,1-1,2.032A4.989,4.989,0,0,1,54.08.192Zm8.912,0A3.95,3.95,0,0,1,59.952-.88a4.774,4.774,0,0,1-.992-3.328,4.748,4.748,0,0,1,1-3.328,3.955,3.955,0,0,1,3.032-1.072,3.514,3.514,0,0,1,2.776,1.04,4.811,4.811,0,0,1,.92,3.248v.576H60.912a3.017,3.017,0,0,0,.536,1.832,1.922,1.922,0,0,0,1.56.584,1.974,1.974,0,0,0,1.3-.408,1.473,1.473,0,0,0,.5-1.208h1.888A2.781,2.781,0,0,1,65.664-.6,4.245,4.245,0,0,1,62.992.192Zm1.7-5.3q0-1.984-1.7-1.984a1.965,1.965,0,0,0-1.448.488,2.437,2.437,0,0,0-.6,1.5Zm5.28-3.312.176,1.328h.112a1.982,1.982,0,0,1,1.888-1.52,2.1,2.1,0,0,1,.8.144v1.808h-.608q-2.032,0-2.032,2.272V0h-1.92V-8.416ZM76.352.192a3.471,3.471,0,0,1-1.848-.5,2.006,2.006,0,0,1-.824-1.864,2.316,2.316,0,0,1,1.376-2.272,9.3,9.3,0,0,1,3.9-.656v-.7a1.335,1.335,0,0,0-.312-.944,1.508,1.508,0,0,0-1.128-.336,2.009,2.009,0,0,0-1.2.272.821.821,0,0,0-.352.672v.224H74.112a2.538,2.538,0,0,1-.016-.352,1.954,1.954,0,0,1,.936-1.712,4.42,4.42,0,0,1,2.488-.624,3.913,3.913,0,0,1,2.52.688,2.4,2.4,0,0,1,.84,1.968v4.016a.526.526,0,0,0,.16.424.6.6,0,0,0,.4.136h.512V-.064a2.8,2.8,0,0,1-1.2.24,1.716,1.716,0,0,1-1.04-.3,1.477,1.477,0,0,1-.56-.832H79.04A3.278,3.278,0,0,1,76.352.192Zm.576-1.536a2.011,2.011,0,0,0,1.488-.544A1.989,1.989,0,0,0,78.96-3.36v-.384a7.918,7.918,0,0,0-2.432.3,1.1,1.1,0,0,0-.88,1.08Q75.648-1.344,76.928-1.344Z" transform="translate(245.952 -221)" fill="#09102a"/>
    <g id="Group_246" data-name="Group 246" transform="translate(113.952 -291)">
      <path id="Subtraction_3" data-name="Subtraction 3" d="M10,22A10,10,0,1,1,12.521,2.32a6.5,6.5,0,0,0,7.466,10.186A9.988,9.988,0,0,1,10,22Z" transform="translate(100 53)" fill="#217ffc"/>
      <circle id="Ellipse_99" data-name="Ellipse 99" cx="5.5" cy="5.5" r="5.5" transform="translate(112 54)" fill="#09102a"/>
      <g id="Ellipse_116" data-name="Ellipse 116" transform="translate(111 53)" fill="none" stroke="#fff" stroke-width="1">
        <circle cx="6.5" cy="6.5" r="6.5" stroke="none"/>
        <circle cx="6.5" cy="6.5" r="6" fill="none"/>
      </g>
    </g>
  </g>
</svg>
