<svg xmlns="http://www.w3.org/2000/svg" width="2806.2" height="303.656" viewBox="0 0 2806.2 303.656">
  <g id="ill__marquee-top" transform="translate(2935 -8805)">
    <g id="ill__retention" transform="translate(-2935 8805)">
      <g id="Rectangle_403" data-name="Rectangle 403" transform="translate(0 0)" fill="#fff" stroke="#c7dffe" stroke-width="1">
        <rect width="303.656" height="303.656" rx="4" stroke="none"/>
        <rect x="0.5" y="0.5" width="302.656" height="302.656" rx="3.5" fill="none"/>
      </g>
      <path id="Path_202" data-name="Path 202" d="M1,8.116H4.251V1.552H7.559l3.518,6.564H14.7L10.824,1.009a5.083,5.083,0,0,0,3.221-5.085c0-3.422-2.205-5.732-6.319-5.732H1ZM4.251-1.144V-7.095H7.227c2.424,0,3.509,1.111,3.509,3.019S9.651-1.144,7.244-1.144Zm18.4,9.522c3.133,0,5.286-1.532,5.846-3.868l-2.958-.333A2.8,2.8,0,0,1,22.7,5.91c-2.048,0-3.4-1.348-3.431-3.649h9.364V1.289c0-4.717-2.836-6.791-6.144-6.791-3.851,0-6.362,2.827-6.362,6.975C16.127,5.691,18.6,8.378,22.656,8.378ZM19.278.125a3.23,3.23,0,0,1,3.256-3.159A3,3,0,0,1,25.6.125ZM38.024-5.327H35.372V-8.547H32.2v3.221H30.3v2.45H32.2V4.6c-.018,2.529,1.82,3.772,4.2,3.7a6.367,6.367,0,0,0,1.864-.315l-.534-2.477a3.95,3.95,0,0,1-.928.123c-.8,0-1.435-.28-1.435-1.558V-2.876h2.652ZM46.486,8.378c3.133,0,5.286-1.532,5.846-3.868l-2.958-.333A2.8,2.8,0,0,1,46.53,5.91c-2.048,0-3.4-1.348-3.431-3.649h9.364V1.289c0-4.717-2.836-6.791-6.144-6.791-3.851,0-6.362,2.827-6.362,6.975C39.958,5.691,42.434,8.378,46.486,8.378ZM43.108.125a3.23,3.23,0,0,1,3.256-3.159A3,3,0,0,1,49.427.125Zm15.2.114a2.76,2.76,0,0,1,2.844-3.063c1.637,0,2.617,1.076,2.617,2.871V8.116h3.168V-.443c.009-3.221-1.829-5.058-4.6-5.058a4.035,4.035,0,0,0-4.008,2.459H58.17V-5.327H55.142V8.116H58.31ZM76.881-5.327H74.229V-8.547H71.061v3.221H69.153v2.45h1.908V4.6c-.018,2.529,1.82,3.772,4.2,3.7a6.367,6.367,0,0,0,1.864-.315l-.534-2.477a3.95,3.95,0,0,1-.928.123c-.8,0-1.435-.28-1.435-1.558V-2.876h2.652ZM79.532,8.116H82.7V-5.327H79.532Zm1.593-15.35A1.779,1.779,0,0,0,82.954-8.95a1.78,1.78,0,0,0-1.829-1.724A1.782,1.782,0,0,0,79.287-8.95,1.781,1.781,0,0,0,81.125-7.235ZM91.82,8.378c3.938,0,6.441-2.774,6.441-6.931S95.758-5.5,91.82-5.5s-6.441,2.783-6.441,6.949S87.881,8.378,91.82,8.378Zm.018-2.538c-2.179,0-3.247-1.943-3.247-4.4S89.658-2.99,91.837-2.99c2.144,0,3.212,1.969,3.212,4.428S93.981,5.84,91.837,5.84Zm12.27-5.6a2.76,2.76,0,0,1,2.844-3.063c1.637,0,2.617,1.076,2.617,2.871V8.116h3.168V-.443c.009-3.221-1.829-5.058-4.6-5.058a4.035,4.035,0,0,0-4.008,2.459h-.158V-5.327h-3.028V8.116h3.168Z" transform="translate(94.061 60.537)" fill="#172436"/>
      <path id="Path_205" data-name="Path 205" d="M.515,4.577h7.3V2.807h-4.3v-.07l1.5-1.465c2.105-1.92,2.67-2.881,2.67-4.046C7.681-4.55,6.231-5.8,4.035-5.8,1.885-5.8.41-4.52.415-2.509H2.47A1.458,1.458,0,0,1,4.02-4.09a1.443,1.443,0,0,1,1.57,1.46c0,.815-.5,1.375-1.43,2.27L.515,3.017Zm12.612.14a3.533,3.533,0,0,0,3.826-3.556,3.187,3.187,0,0,0-3.211-3.371,2.523,2.523,0,0,0-2.035.88h-.06l.265-2.565h4.476v-1.77H10.127l-.485,5.4,1.925.345a1.946,1.946,0,0,1,1.53-.69,1.73,1.73,0,0,1,1.77,1.825,1.7,1.7,0,0,1-1.74,1.8,1.5,1.5,0,0,1-1.605-1.335h-2.1C9.461,3.452,11.007,4.717,13.127,4.717Zm10.942-2.06a2.255,2.255,0,1,0,4.511,0v-.54A2.14,2.14,0,0,0,26.325-.159a2.164,2.164,0,0,0-2.255,2.275ZM18.813-3.2a2.144,2.144,0,0,0,2.25,2.265A2.144,2.144,0,0,0,23.324-3.2v-.54a2.141,2.141,0,0,0-2.26-2.275,2.163,2.163,0,0,0-2.25,2.275Zm.49,7.781h1.305L27.65-5.665H26.345Zm6.221-2.46c0-.49.2-1,.8-1,.63,0,.8.505.79,1v.54c.005.49-.18.985-.79.985s-.8-.51-.8-.985ZM20.278-3.744c.005-.475.19-1,.785-1,.63,0,.8.505.8,1v.54c.005.49-.185.985-.8.985-.59,0-.78-.5-.785-.985Z" transform="translate(136.74 187.298)" fill="#172436"/>
      <g id="Group_310" data-name="Group 310" transform="translate(76.574 112.351)">
        <path id="Subtraction_1" data-name="Subtraction 1" d="M73.933,147.867A73.953,73.953,0,0,1,45.155,5.81a73.953,73.953,0,0,1,57.556,136.247A73.472,73.472,0,0,1,73.933,147.867Zm0-122.622a48.688,48.688,0,1,0,48.688,48.688A48.743,48.743,0,0,0,73.933,25.245Z" transform="translate(0 0.309)" fill="#eaeefe"/>
        <path id="Intersection_1" data-name="Intersection 1" d="M48.783,73.291A48.847,48.847,0,0,0,0,25.3V0A73.634,73.634,0,0,1,28.839,5.822,73.864,73.864,0,0,1,52.389,21.7,73.864,73.864,0,0,1,68.267,45.25a73.577,73.577,0,0,1,5.818,28.041Z" transform="translate(73.779 0)" fill="#217ffc"/>
      </g>
    </g>
    <g id="ill__signups" transform="translate(-1146 8805)">
      <g id="Rectangle_414" data-name="Rectangle 414" transform="translate(0)" fill="#fff" stroke="#c7dffe" stroke-width="1">
        <rect width="303.656" height="303.656" rx="4" stroke="none"/>
        <rect x="0.5" y="0.5" width="302.656" height="302.656" rx="3.5" fill="none"/>
      </g>
      <path id="Path_220" data-name="Path 220" d="M11.093-26.9h2.762c-.054-2.677-2.337-4.573-5.71-4.573-3.327,0-5.826,1.872-5.818,4.673,0,2.275,1.617,3.582,4.224,4.255l1.8.464c1.71.433,2.839.967,2.847,2.2-.008,1.354-1.292,2.259-3.164,2.259-1.795,0-3.188-.8-3.3-2.468H1.909c.116,3.149,2.46,4.921,6.151,4.921,3.8,0,6-1.9,6.012-4.689-.008-2.747-2.275-4-4.658-4.565L7.928-24.8c-1.3-.309-2.708-.859-2.692-2.182.008-1.191,1.075-2.066,2.87-2.066C9.816-29.043,10.946-28.246,11.093-26.9ZM16.5-15.411h2.8V-27.295H16.5Zm1.408-13.571A1.573,1.573,0,0,0,19.526-30.5a1.574,1.574,0,0,0-1.617-1.524A1.576,1.576,0,0,0,16.284-30.5,1.575,1.575,0,0,0,17.909-28.981Zm9.439,18.228c3.211,0,5.578-1.47,5.578-4.464V-27.295H30.165v1.965H30.01a3.55,3.55,0,0,0-3.412-2.12c-2.747,0-4.905,2.151-4.905,6.058,0,3.876,2.159,5.81,4.9,5.81a3.533,3.533,0,0,0,3.42-1.965h.139v2.251c0,1.7-1.161,2.422-2.754,2.422a2.834,2.834,0,0,1-2.77-1.447l-2.522.611C22.613-12.092,24.323-10.753,27.348-10.753Zm.023-7.025c-1.849,0-2.824-1.439-2.824-3.629,0-2.159.959-3.745,2.824-3.745,1.8,0,2.793,1.493,2.793,3.745C30.165-19.14,29.159-17.778,27.372-17.778Zm11.234-4.6a2.44,2.44,0,0,1,2.515-2.708,2.237,2.237,0,0,1,2.313,2.538v7.134h2.8v-7.567c.008-2.847-1.617-4.472-4.07-4.472a3.567,3.567,0,0,0-3.544,2.174h-.139v-2.019H35.8v11.884h2.8Zm18.058,1.965a2.526,2.526,0,0,1-2.53,2.708,2.212,2.212,0,0,1-2.244-2.46v-7.134h-2.8v7.567c0,2.855,1.625,4.472,3.961,4.472a3.668,3.668,0,0,0,3.574-2.267h.124v2.112h2.716V-27.295h-2.8Zm5.679,9.455h2.8v-6.329h.116a3.582,3.582,0,0,0,3.4,2.081c2.8,0,4.9-2.221,4.9-6.135,0-3.961-2.159-6.112-4.905-6.112a3.525,3.525,0,0,0-3.4,2.12H65.1v-1.965H62.343Zm2.747-10.4c0-2.306.99-3.8,2.793-3.8,1.865,0,2.824,1.586,2.824,3.8,0,2.228-.975,3.853-2.824,3.853C66.1-17.5,65.089-19.047,65.089-21.353Zm20.255-2.8c-.387-2.012-2-3.3-4.781-3.3-2.863,0-4.812,1.408-4.8,3.605-.008,1.733,1.06,2.878,3.342,3.35l2.027.426c1.091.24,1.6.681,1.6,1.354,0,.812-.882,1.424-2.213,1.424a2.129,2.129,0,0,1-2.36-1.625l-2.731.263c.348,2.182,2.182,3.474,5.1,3.474,2.971,0,5.068-1.54,5.075-3.791-.008-1.694-1.1-2.731-3.342-3.219l-2.027-.433c-1.207-.271-1.687-.689-1.679-1.377-.008-.8.882-1.362,2.05-1.362a2.077,2.077,0,0,1,2.19,1.486Z" transform="translate(41.88 74.992)" fill="#09102a"/>
      <path id="Rectangle_418" data-name="Rectangle 418" d="M4,0H30.558a4,4,0,0,1,4,4V82.94a0,0,0,0,1,0,0H0a0,0,0,0,1,0,0V4A4,4,0,0,1,4,0Z" transform="translate(105.13 176.883)" fill="#eaeefe"/>
      <path id="Rectangle_420" data-name="Rectangle 420" d="M4,0H30.558a4,4,0,0,1,4,4V82.94a0,0,0,0,1,0,0H0a0,0,0,0,1,0,0V4A4,4,0,0,1,4,0Z" transform="translate(226.083 176.883)" fill="rgba(52,94,239,0.1)"/>
      <path id="Rectangle_417" data-name="Rectangle 417" d="M4,0H30.558a4,4,0,0,1,4,4V166.743a0,0,0,0,1,0,0H0a0,0,0,0,1,0,0V4A4,4,0,0,1,4,0Z" transform="translate(164.743 93.079)" fill="#217ffc"/>
      <path id="Rectangle_419" data-name="Rectangle 419" d="M4,0H30.558a4,4,0,0,1,4,4V124.409a0,0,0,0,1,0,0H0a0,0,0,0,1,0,0V4A4,4,0,0,1,4,0Z" transform="translate(43.789 135.413)" fill="#eaeefe"/>
    </g>
    <g id="ill__user-clicks" transform="translate(-1504 8805.001)">
      <g id="Rectangle_402" data-name="Rectangle 402" transform="translate(0 0)" fill="#fff" stroke="#c7dffe" stroke-width="1">
        <rect width="303.656" height="303.656" rx="4" stroke="none"/>
        <rect x="0.5" y="0.5" width="302.656" height="302.656" rx="3.5" fill="none"/>
      </g>
      <path id="Path_198" data-name="Path 198" d="M12.311-9.808V1.963c0,2.214-1.777,3.5-4.034,3.5s-4.026-1.286-4.026-3.5V-9.808H1V2.042C1,6.1,4.12,8.387,8.277,8.387c4.14,0,7.273-2.284,7.273-6.345V-9.808ZM29.57-1.774C29.132-4.049,27.312-5.5,24.161-5.5c-3.238,0-5.443,1.593-5.435,4.078-.009,1.96,1.2,3.256,3.781,3.789l2.293.481c1.234.271,1.812.77,1.812,1.532,0,.919-1,1.61-2.5,1.61a2.408,2.408,0,0,1-2.669-1.838l-3.089.3c.394,2.468,2.468,3.929,5.767,3.929,3.361,0,5.732-1.742,5.741-4.288C29.85,2.173,28.616,1,26.078.449l-2.293-.49c-1.365-.306-1.908-.779-1.9-1.558-.009-.91,1-1.54,2.319-1.54a2.349,2.349,0,0,1,2.477,1.68ZM38.426,8.378c3.133,0,5.286-1.532,5.846-3.868l-2.958-.333A2.8,2.8,0,0,1,38.47,5.91c-2.048,0-3.4-1.348-3.431-3.649H44.4V1.289C44.4-3.428,41.568-5.5,38.26-5.5,34.409-5.5,31.9-2.675,31.9,1.473,31.9,5.691,34.374,8.378,38.426,8.378ZM35.048.125A3.23,3.23,0,0,1,38.3-3.034,3,3,0,0,1,41.367.125Zm12.033,7.99H50.25V.213A2.872,2.872,0,0,1,53.278-2.7a6.054,6.054,0,0,1,1.47.184V-5.432a7.607,7.607,0,0,0-1.138-.088,3.356,3.356,0,0,0-3.317,2.433h-.14v-2.24H47.081Zm21.756.263c3.378,0,5.531-2,5.759-4.857H71.568a2.622,2.622,0,0,1-2.7,2.275c-1.978,0-3.256-1.654-3.256-4.4,0-2.713,1.3-4.341,3.256-4.341a2.634,2.634,0,0,1,2.7,2.275H74.6C74.378-3.585,72.1-5.5,68.82-5.5,64.882-5.5,62.4-2.658,62.4,1.447,62.4,5.516,64.821,8.378,68.838,8.378ZM80.373-9.808H77.2V8.116h3.168ZM83.628,8.116H86.8V-5.327H83.628Zm1.593-15.35A1.779,1.779,0,0,0,87.05-8.95a1.78,1.78,0,0,0-1.829-1.724A1.782,1.782,0,0,0,83.383-8.95,1.781,1.781,0,0,0,85.221-7.235ZM95.915,8.378c3.378,0,5.531-2,5.759-4.857H98.646a2.622,2.622,0,0,1-2.7,2.275c-1.978,0-3.256-1.654-3.256-4.4,0-2.713,1.3-4.341,3.256-4.341a2.634,2.634,0,0,1,2.7,2.275h3.028C101.455-3.585,99.18-5.5,95.9-5.5c-3.938,0-6.424,2.844-6.424,6.949C89.474,5.516,91.9,8.378,95.915,8.378Zm8.367-.263h3.168V3.6l1.155-1.234,4.113,5.75h3.789L110.994.476l5.207-5.8h-3.7l-4.831,5.4h-.219V-9.808h-3.168Zm24.645-9.889c-.438-2.275-2.258-3.728-5.408-3.728-3.238,0-5.444,1.593-5.435,4.078-.009,1.96,1.2,3.256,3.781,3.789l2.293.481c1.234.271,1.812.77,1.812,1.532,0,.919-1,1.61-2.5,1.61A2.408,2.408,0,0,1,120.8,4.151l-3.089.3c.394,2.468,2.468,3.929,5.767,3.929,3.361,0,5.732-1.742,5.741-4.288C129.207,2.173,127.973,1,125.435.449l-2.293-.49c-1.365-.306-1.908-.779-1.9-1.558-.009-.91,1-1.54,2.319-1.54a2.349,2.349,0,0,1,2.477,1.68Z" transform="translate(43.011 60.537)" fill="#172436"/>
      <path id="Path_206" data-name="Path 206" d="M15419,4268.913V4299.7" transform="translate(-15375.872 -4044.452)" fill="none" stroke="#eaeefe" stroke-linecap="round" stroke-width="5"/>
      <path id="Path_203" data-name="Path 203" d="M15419,4268.913v61.58" transform="translate(-15340.665 -4075.241)" fill="none" stroke="#eaeefe" stroke-linecap="round" stroke-width="5"/>
      <path id="Path_204" data-name="Path 204" d="M15419,4268.913v61.58" transform="translate(-15266.731 -4075.241)" fill="none" stroke="#eaeefe" stroke-linecap="round" stroke-width="5"/>
      <path id="Path_207" data-name="Path 207" d="M15419,4268.913V4299.7" transform="translate(-15231.525 -4044.452)" fill="none" stroke="#eaeefe" stroke-linecap="round" stroke-width="5"/>
      <path id="Path_199" data-name="Path 199" d="M15419,4268.913v133.035" transform="translate(-15194.559 -4146.695)" fill="none" stroke="#217ffc" stroke-linecap="round" stroke-width="5"/>
      <path id="Path_200" data-name="Path 200" d="M15419,4268.913v90.265" transform="translate(-15157.592 -4103.925)" fill="none" stroke="#217ffc" stroke-linecap="round" stroke-width="5"/>
      <path id="Path_201" data-name="Path 201" d="M15419,4268.912v85.882" transform="translate(-15303.698 -4099.542)" fill="none" stroke="#eaeefe" stroke-linecap="round" stroke-width="5"/>
    </g>
    <g id="ill__blocks-1" transform="translate(0.661)">
      <g id="Component_2_26" data-name="Component 2 – 26" transform="translate(-2219.661 8805)">
        <g id="Rectangle_250" data-name="Rectangle 250" fill="#fff" stroke="#c7dffe" stroke-width="1">
          <rect width="661.271" height="129.453" rx="4" stroke="none"/>
          <rect x="0.5" y="0.5" width="660.271" height="128.453" rx="3.5" fill="none"/>
        </g>
        <path id="Path_153" data-name="Path 153" d="M19.352-2.84H23.38c-.877-5.07-5.209-8.576-10.825-8.576C5.821-11.416.9-6.347.9,1.963.9,10.2,5.681,15.317,12.732,15.317c6.315,0,10.825-4.142,10.825-10.711V1.645H13.33v3.24h6.429c-.089,4.193-2.859,6.848-7.026,6.848-4.587,0-7.928-3.469-7.928-9.8,0-6.3,3.367-9.771,7.776-9.771A6.707,6.707,0,0,1,19.352-2.84Zm10.1,17.8h3.8V-4.555h-3.8ZM31.372-7.566a2.348,2.348,0,0,0,2.4-2.262,2.359,2.359,0,0,0-2.4-2.274,2.351,2.351,0,0,0-2.4,2.274A2.34,2.34,0,0,0,31.372-7.566Zm16.1,3.011h-4V-9.231h-3.8v4.676H36.81v3.049h2.859V10.018c-.013,3.545,2.694,5.26,5.692,5.2a7.274,7.274,0,0,0,2.465-.407L47.14,11.67a6.177,6.177,0,0,1-1.334.165c-1.232,0-2.338-.407-2.338-2.6V-1.506h4Zm8.4,7.928c0-3.113,1.969-4.892,4.676-4.892,2.617,0,4.18,1.664,4.18,4.523V14.961h3.8V2.547c0-4.866-2.668-7.357-6.683-7.357-3.037,0-4.866,1.321-5.781,3.431h-.241V-11.06H52.069V14.961h3.8Zm30.1,3.494a4.6,4.6,0,0,1-4.587,4.892c-2.351,0-3.977-1.7-3.977-4.358V-4.555h-3.8V7.858c0,4.841,2.655,7.357,6.4,7.357a6.047,6.047,0,0,0,5.832-3.634h.2v3.38H89.78V-4.555H85.968Zm9.212,8.094h3.71V11.924h.318a5.957,5.957,0,0,0,5.641,3.418c4.727,0,8.157-3.786,8.157-10.1s-3.481-10.05-8.2-10.05a5.861,5.861,0,0,0-5.6,3.418h-.229V-11.06h-3.8ZM98.9,5.2c0-4.079,1.779-6.785,5.1-6.785,3.443,0,5.171,2.91,5.171,6.785,0,3.913-1.779,6.9-5.171,6.9C100.732,12.1,98.9,9.307,98.9,5.2Z" transform="translate(95.038 63.306)" fill="#172436"/>
        <ellipse id="Ellipse_58" data-name="Ellipse 58" cx="9.589" cy="10.388" rx="9.589" ry="10.388" transform="translate(451.721 55.937)" fill="#217ffc"/>
        <g id="Toggle" transform="translate(523.584 43.151)">
          <rect id="Rectangle_212" data-name="Rectangle 212" width="95.891" height="46.348" rx="23.174" transform="translate(0 0)" fill="#217ffc"/>
          <ellipse id="Ellipse_51" data-name="Ellipse 51" cx="18.379" cy="19.178" rx="18.379" ry="19.178" transform="translate(54.338 4.795)" fill="#fff"/>
        </g>
        <path id="github-brands_2_" data-name="github-brands (2)" d="M11.99,36.142c0,.145-.166.26-.376.26-.238.022-.4-.094-.4-.26,0-.145.166-.26.376-.26C11.8,35.86,11.99,35.976,11.99,36.142Zm-2.248-.325c-.051.145.094.311.311.354a.339.339,0,0,0,.448-.145c.043-.145-.094-.311-.311-.376a.371.371,0,0,0-.448.166Zm3.194-.123c-.21.051-.354.188-.332.354.022.145.21.238.426.188s.354-.188.332-.332S13.146,35.672,12.936,35.694ZM17.692,8A17.33,17.33,0,0,0,0,25.634,18.119,18.119,0,0,0,12.25,42.921c.925.166,1.25-.4,1.25-.874,0-.448-.022-2.92-.022-4.437,0,0-5.059,1.084-6.121-2.154,0,0-.824-2.1-2.009-2.645,0,0-1.655-1.135.116-1.113a3.815,3.815,0,0,1,2.79,1.865,3.82,3.82,0,0,0,5.269,1.51,4.017,4.017,0,0,1,1.156-2.436c-4.04-.448-8.116-1.033-8.116-7.986a5.477,5.477,0,0,1,1.706-4.257,6.828,6.828,0,0,1,.188-4.907c1.51-.47,4.987,1.951,4.987,1.951a17.073,17.073,0,0,1,9.077,0S26,15.01,27.506,15.487a6.825,6.825,0,0,1,.188,4.907,5.618,5.618,0,0,1,1.865,4.257c0,6.974-4.257,7.531-8.3,7.986a4.274,4.274,0,0,1,1.229,3.353c0,2.436-.022,5.449-.022,6.042,0,.47.332,1.041,1.25.874A17.952,17.952,0,0,0,35.846,25.634C35.846,15.61,27.716,8,17.692,8ZM7.025,32.926c-.094.072-.072.238.051.376.116.116.282.166.376.072.094-.072.072-.238-.051-.376C7.285,32.883,7.119,32.832,7.025,32.926Zm-.781-.585c-.051.094.022.21.166.282a.215.215,0,0,0,.311-.051c.051-.094-.022-.21-.166-.282C6.41,32.247,6.295,32.268,6.244,32.341Zm2.342,2.573c-.116.094-.072.311.094.448.166.166.376.188.47.072.094-.094.051-.311-.094-.448C8.9,34.82,8.68,34.8,8.586,34.913Zm-.824-1.062c-.116.072-.116.26,0,.426s.311.238.4.166a.33.33,0,0,0,0-.448c-.1-.166-.289-.238-.4-.145Z" transform="translate(40.019 39.375)"/>
      </g>
      <g id="Component_2_27" data-name="Component 2 – 27" transform="translate(-2219.661 8979.203)">
        <g id="Rectangle_250-2" data-name="Rectangle 250" fill="#fff" stroke="#c7dffe" stroke-width="1">
          <rect width="659.543" height="129.453" rx="4" stroke="none"/>
          <rect x="0.5" y="0.5" width="658.543" height="128.453" rx="3.5" fill="none"/>
        </g>
        <path id="Path_154" data-name="Path 154" d="M5.2-11.636H1.278V14.385H5.2ZM14.416,2.8c0-3.113,1.906-4.892,4.549-4.892,2.579,0,4.142,1.69,4.142,4.523V14.385h3.8V1.971c0-4.828-2.656-7.357-6.645-7.357-2.935,0-4.854,1.36-5.756,3.431h-.241V-5.131H10.617V14.385h3.8Zm32.2-3.164C45.825-3.4,43.449-5.385,39.23-5.385,34.822-5.385,31.7-3.06,31.7.4c0,2.77,1.677,4.612,5.336,5.425l3.3.724c1.88.419,2.757,1.258,2.757,2.478,0,1.512-1.614,2.694-4.1,2.694-2.274,0-3.735-.978-4.193-2.9l-3.672.559c.635,3.456,3.507,5.4,7.89,5.4,4.714,0,7.979-2.5,7.979-6.035,0-2.757-1.753-4.46-5.336-5.286l-3.1-.712C36.41,2.238,35.482,1.514,35.495.193c-.013-1.5,1.614-2.567,3.774-2.567a3.765,3.765,0,0,1,3.9,2.617ZM60.271-5.131h-4V-9.807h-3.8v4.676H49.611v3.049H52.47V9.442c-.013,3.545,2.694,5.26,5.692,5.2a7.274,7.274,0,0,0,2.465-.407l-.686-3.138a6.177,6.177,0,0,1-1.334.165c-1.232,0-2.338-.407-2.338-2.6V-2.082h4Zm9.872,19.948c3.227,0,5.044-1.639,5.768-3.1h.152v2.668h3.71V1.425c0-5.679-4.472-6.81-7.573-6.81-3.532,0-6.785,1.423-8.055,4.981l3.57.813A4.558,4.558,0,0,1,72.253-2.31c2.452,0,3.71,1.283,3.71,3.494v.089c0,1.385-1.423,1.36-4.93,1.766-3.7.432-7.484,1.4-7.484,5.832C63.549,12.708,66.433,14.817,70.143,14.817Zm.826-3.049c-2.147,0-3.7-.966-3.7-2.846,0-2.033,1.8-2.757,4-3.049,1.232-.165,4.155-.5,4.7-1.042V7.346C75.975,9.658,74.133,11.768,70.969,11.768Zm22.044,10.3c4.968,0,8.805-2.274,8.805-7.255V-5.131H98.1v3.164h-.28a5.931,5.931,0,0,0-5.654-3.418c-4.714,0-8.182,3.723-8.182,9.936s3.545,9.542,8.157,9.542a5.876,5.876,0,0,0,5.654-3.265h.241v3.837c0,3.011-2.1,4.345-4.981,4.345a5.35,5.35,0,0,1-5.07-2.668l-3.265,1.347C85.746,20.039,88.351,22.072,93.014,22.072Zm-.038-11.13c-3.392,0-5.159-2.6-5.159-6.442,0-3.748,1.728-6.658,5.159-6.658,3.316,0,5.095,2.706,5.095,6.658C98.071,8.528,96.254,10.942,92.976,10.942Zm13.938,3.443h3.8V2.467a4.387,4.387,0,0,1,4.663-4.4,8.976,8.976,0,0,1,1.982.229V-5.334a15.43,15.43,0,0,0-1.614-.089,5.079,5.079,0,0,0-4.955,3.392h-.2v-3.1h-3.672Zm19.249.432c3.227,0,5.044-1.639,5.768-3.1h.152v2.668h3.71V1.425c0-5.679-4.472-6.81-7.573-6.81-3.532,0-6.785,1.423-8.055,4.981l3.57.813a4.558,4.558,0,0,1,4.536-2.719c2.452,0,3.71,1.283,3.71,3.494v.089c0,1.385-1.423,1.36-4.93,1.766-3.7.432-7.484,1.4-7.484,5.832C119.569,12.708,122.453,14.817,126.163,14.817Zm.826-3.049c-2.147,0-3.7-.966-3.7-2.846,0-2.033,1.8-2.757,4-3.049,1.232-.165,4.155-.5,4.7-1.042V7.346C131.995,9.658,130.153,11.768,126.989,11.768Zm13.862,2.617h3.8V2.353a4.178,4.178,0,0,1,4-4.46,3.361,3.361,0,0,1,3.57,3.519V14.385h3.786V1.946a3.739,3.739,0,0,1,3.913-4.053,3.4,3.4,0,0,1,3.659,3.761V14.385h3.8V1.3c0-4.46-2.49-6.683-6.023-6.683A6.1,6.1,0,0,0,155.5-1.955h-.2a5.281,5.281,0,0,0-5.247-3.431,5.337,5.337,0,0,0-5.311,3.431H144.5V-5.131h-3.647Z" transform="translate(95.501 63.882)" fill="#172436"/>
        <ellipse id="Ellipse_58-2" data-name="Ellipse 58" cx="9.589" cy="10.388" rx="9.589" ry="10.388" transform="translate(451.833 55.937)" fill="#217ffc"/>
        <g id="Toggle-2" data-name="Toggle" transform="translate(523.584 43.151)">
          <rect id="Rectangle_212-2" data-name="Rectangle 212" width="95.891" height="46.348" rx="23.174" transform="translate(0 0)" fill="#dbe0f2"/>
          <circle id="Ellipse_51-2" data-name="Ellipse 51" cx="19.178" cy="19.178" r="19.178" transform="translate(4.795 4.795)" fill="#fff"/>
        </g>
        <path id="instagram-brands_4_" data-name="instagram-brands (4)" d="M17.835,40.547a9.18,9.18,0,1,0,9.18,9.18A9.165,9.165,0,0,0,17.835,40.547Zm0,15.148A5.968,5.968,0,1,1,23.8,49.727,5.979,5.979,0,0,1,17.835,55.695Zm11.7-15.523a2.141,2.141,0,1,1-2.141-2.141A2.136,2.136,0,0,1,29.531,40.172Zm6.08,2.173c-.136-2.868-.791-5.409-2.892-7.5s-4.634-2.748-7.5-2.892c-2.956-.168-11.816-.168-14.772,0-2.86.136-5.4.791-7.5,2.884S.195,39.469.051,42.337c-.168,2.956-.168,11.816,0,14.772.136,2.868.791,5.409,2.892,7.5s4.634,2.748,7.5,2.892c2.956.168,11.816.168,14.772,0,2.868-.136,5.409-.791,7.5-2.892s2.748-4.634,2.892-7.5C35.779,54.153,35.779,45.3,35.611,42.345ZM31.792,60.281a6.042,6.042,0,0,1-3.4,3.4c-2.357.935-7.949.719-10.554.719s-8.2.208-10.554-.719a6.042,6.042,0,0,1-3.4-3.4c-.935-2.357-.719-7.949-.719-10.554s-.208-8.2.719-10.554a6.042,6.042,0,0,1,3.4-3.4c2.357-.935,7.949-.719,10.554-.719s8.2-.208,10.554.719a6.042,6.042,0,0,1,3.4,3.4c.935,2.357.719,7.949.719,10.554S32.727,57.932,31.792,60.281Z" transform="translate(44.177 15.123)"/>
      </g>
    </g>
    <g id="ill__downloads" transform="translate(-2577 8805.001)">
      <g id="Rectangle_402-2" data-name="Rectangle 402" fill="#fff" stroke="#c7dffe" stroke-width="1">
        <rect width="303.656" height="303.656" rx="4" stroke="none"/>
        <rect x="0.5" y="0.5" width="302.656" height="302.656" rx="3.5" fill="none"/>
      </g>
      <g id="Component_3_18" data-name="Component 3 – 18" transform="translate(44.015 112.086)">
        <g id="Group_78" data-name="Group 78">
          <line id="Line_18" data-name="Line 18" x1="216.343" fill="none" stroke="#eaeefe" stroke-linecap="round" stroke-width="8"/>
          <line id="Line_19" data-name="Line 19" x1="120.911" fill="none" stroke="#217ffc" stroke-linecap="round" stroke-width="8"/>
        </g>
      </g>
      <g id="Component_3_19" data-name="Component 3 – 19" transform="translate(44.015 149.236)">
        <g id="Group_78-2" data-name="Group 78">
          <line id="Line_18-2" data-name="Line 18" x1="216.343" fill="none" stroke="#eaeefe" stroke-linecap="round" stroke-width="8"/>
          <line id="Line_19-2" data-name="Line 19" x1="67.311" y1="0.432" fill="none" stroke="#217ffc" stroke-linecap="round" stroke-width="8"/>
        </g>
      </g>
      <g id="Component_3_20" data-name="Component 3 – 20" transform="translate(43.506 186.386)">
        <g id="Group_78-3" data-name="Group 78">
          <line id="Line_18-3" data-name="Line 18" x1="216.343" fill="none" stroke="#eaeefe" stroke-linecap="round" stroke-width="8"/>
          <line id="Line_19-3" data-name="Line 19" x1="168.471" fill="none" stroke="#217ffc" stroke-linecap="round" stroke-width="8"/>
        </g>
      </g>
      <g id="Component_3_21" data-name="Component 3 – 21" transform="translate(43.506 222.672)">
        <g id="Group_78-4" data-name="Group 78">
          <line id="Line_18-4" data-name="Line 18" x1="216.343" fill="none" stroke="#eaeefe" stroke-linecap="round" stroke-width="8"/>
          <line id="Line_19-4" data-name="Line 19" x1="88.123" fill="none" stroke="#217ffc" stroke-linecap="round" stroke-width="8"/>
        </g>
      </g>
      <g id="Component_3_22" data-name="Component 3 – 22" transform="translate(44.016 259.822)">
        <g id="Group_78-5" data-name="Group 78">
          <line id="Line_18-5" data-name="Line 18" x1="216.343" fill="none" stroke="#eaeefe" stroke-linecap="round" stroke-width="8"/>
          <line id="Line_19-5" data-name="Line 19" x1="203.815" y1="0.432" fill="none" stroke="#217ffc" stroke-linecap="round" stroke-width="8"/>
        </g>
      </g>
      <path id="Path_218" data-name="Path 218" d="M8.976-12.948c5.362,0,8.541-3.317,8.541-8.816,0-5.482-3.179-8.782-8.421-8.782H3.013v17.6ZM6.2-15.706V-27.787H8.916c3.574,0,5.439,1.993,5.439,6.023,0,4.047-1.865,6.058-5.534,6.058Zm19.96,3.016c3.867,0,6.324-2.724,6.324-6.805s-2.457-6.822-6.324-6.822-6.324,2.732-6.324,6.822S22.294-12.69,26.161-12.69Zm.017-2.492c-2.14,0-3.188-1.908-3.188-4.322s1.048-4.348,3.188-4.348c2.105,0,3.153,1.933,3.153,4.348S28.283-15.182,26.178-15.182Zm11.3,2.234h3.248L43.2-21.867h.18l2.475,8.919h3.239l3.738-13.2H49.653l-2.286,9.228h-.129l-2.372-9.228H41.731l-2.372,9.28h-.12l-2.32-9.28H33.748Zm20.648-7.733a2.71,2.71,0,0,1,2.793-3.007c1.607,0,2.569,1.057,2.569,2.818v7.922H66.6v-8.4c.009-3.162-1.8-4.966-4.52-4.966A3.961,3.961,0,0,0,58.142-23.9h-.155v-2.243H55.015v13.2h3.11Zm14.753-9.864h-3.11v17.6h3.11ZM81.832-12.69c3.867,0,6.324-2.724,6.324-6.805s-2.457-6.822-6.324-6.822-6.324,2.732-6.324,6.822S77.965-12.69,81.832-12.69Zm.017-2.492c-2.14,0-3.188-1.908-3.188-4.322s1.048-4.348,3.188-4.348C83.954-23.852,85-21.919,85-19.5S83.954-15.182,81.849-15.182Zm12.734,2.5a4.076,4.076,0,0,0,3.875-2.079h.1v1.813h2.99v-8.833c0-3.489-2.844-4.537-5.362-4.537-2.775,0-4.906,1.237-5.594,3.643l2.9.412a2.635,2.635,0,0,1,2.707-1.676c1.444,0,2.234.739,2.234,2.036v.052c0,.894-.937.937-3.265,1.186-2.561.275-5.009,1.04-5.009,4.013C90.166-14.056,92.065-12.682,94.583-12.682Zm.808-2.286c-1.3,0-2.225-.593-2.225-1.736,0-1.194,1.04-1.693,2.432-1.89a9.469,9.469,0,0,0,2.853-.644v1.555A2.81,2.81,0,0,1,95.391-14.967Zm14.195,2.251a3.978,3.978,0,0,0,3.781-2.311h.189v2.079h3.059v-17.6H113.5v6.582h-.129a3.915,3.915,0,0,0-3.772-2.354c-3.05,0-5.448,2.389-5.448,6.788C104.146-15.182,106.475-12.716,109.586-12.716Zm.868-2.552c-2.054,0-3.136-1.8-3.136-4.279,0-2.457,1.065-4.219,3.136-4.219,2,0,3.1,1.658,3.1,4.219S112.438-15.268,110.453-15.268Zm19.917-7.39c-.43-2.234-2.217-3.66-5.31-3.66-3.179,0-5.345,1.564-5.336,4-.009,1.925,1.177,3.2,3.712,3.721l2.251.473c1.212.266,1.779.756,1.779,1.5,0,.9-.98,1.581-2.457,1.581a2.364,2.364,0,0,1-2.621-1.8l-3.033.292c.387,2.423,2.423,3.858,5.662,3.858,3.3,0,5.628-1.71,5.637-4.21-.009-1.882-1.22-3.033-3.712-3.574l-2.251-.481c-1.34-.3-1.873-.765-1.865-1.529-.009-.894.98-1.512,2.277-1.512a2.307,2.307,0,0,1,2.432,1.65Z" transform="translate(40.493 73.515)" fill="#09102a"/>
    </g>
    <g id="ill__downloads-2" transform="translate(716.431 -357.675)">
      <g id="Rectangle_402-3" data-name="Rectangle 402" transform="translate(-1504.431 9162.676)" fill="#fff" stroke="#c7dffe" stroke-width="1">
        <rect width="659.2" height="303.656" rx="4" stroke="none"/>
        <rect x="0.5" y="0.5" width="658.2" height="302.656" rx="3.5" fill="none"/>
      </g>
      <g id="Component_3_28" data-name="Component 3 – 28" transform="translate(-1460.415 9274.559)">
        <g id="Group_78-6" data-name="Group 78">
          <line id="Line_18-6" data-name="Line 18" x1="571.887" transform="translate(0 0.204)" fill="none" stroke="#eaeefe" stroke-linecap="round" stroke-width="8"/>
          <line id="Line_19-6" data-name="Line 19" x1="474.12" y2="0.204" fill="none" stroke="#217ffc" stroke-linecap="round" stroke-width="8"/>
        </g>
      </g>
      <g id="Component_3_29" data-name="Component 3 – 29" transform="translate(-1460.415 9311.709)">
        <g id="Group_78-7" data-name="Group 78">
          <line id="Line_18-7" data-name="Line 18" x1="571.887" transform="translate(0 0.204)" fill="none" stroke="#eaeefe" stroke-linecap="round" stroke-width="8"/>
          <line id="Line_19-7" data-name="Line 19" x1="341.071" y2="0.204" fill="none" stroke="#217ffc" stroke-linecap="round" stroke-width="8"/>
        </g>
      </g>
      <g id="Component_3_30" data-name="Component 3 – 30" transform="translate(-1460.925 9349.063)">
        <g id="Group_78-8" data-name="Group 78">
          <line id="Line_18-8" data-name="Line 18" x1="571.887" fill="none" stroke="#eaeefe" stroke-linecap="round" stroke-width="8"/>
          <line id="Line_19-8" data-name="Line 19" x1="168.471" fill="none" stroke="#217ffc" stroke-linecap="round" stroke-width="8"/>
        </g>
      </g>
      <g id="Component_3_31" data-name="Component 3 – 31" transform="translate(-1460.925 9385.349)">
        <g id="Group_78-9" data-name="Group 78">
          <line id="Line_18-9" data-name="Line 18" x1="571.887" fill="none" stroke="#eaeefe" stroke-linecap="round" stroke-width="8"/>
          <line id="Line_19-9" data-name="Line 19" x1="88.123" fill="none" stroke="#217ffc" stroke-linecap="round" stroke-width="8"/>
        </g>
      </g>
      <g id="Component_3_32" data-name="Component 3 – 32" transform="translate(-1460.415 9422.295)">
        <g id="Group_78-10" data-name="Group 78">
          <line id="Line_18-10" data-name="Line 18" x1="571.887" transform="translate(0 0.204)" fill="none" stroke="#eaeefe" stroke-linecap="round" stroke-width="8"/>
          <line id="Line_19-10" data-name="Line 19" x1="532.868" y2="0.204" fill="none" stroke="#217ffc" stroke-linecap="round" stroke-width="8"/>
        </g>
      </g>
      <path id="Path_218-2" data-name="Path 218" d="M8.976-12.948c5.362,0,8.541-3.317,8.541-8.816,0-5.482-3.179-8.782-8.421-8.782H3.013v17.6ZM6.2-15.706V-27.787H8.916c3.574,0,5.439,1.993,5.439,6.023,0,4.047-1.865,6.058-5.534,6.058Zm19.96,3.016c3.867,0,6.324-2.724,6.324-6.805s-2.457-6.822-6.324-6.822-6.324,2.732-6.324,6.822S22.294-12.69,26.161-12.69Zm.017-2.492c-2.14,0-3.188-1.908-3.188-4.322s1.048-4.348,3.188-4.348c2.105,0,3.153,1.933,3.153,4.348S28.283-15.182,26.178-15.182Zm11.3,2.234h3.248L43.2-21.867h.18l2.475,8.919h3.239l3.738-13.2H49.653l-2.286,9.228h-.129l-2.372-9.228H41.731l-2.372,9.28h-.12l-2.32-9.28H33.748Zm20.648-7.733a2.71,2.71,0,0,1,2.793-3.007c1.607,0,2.569,1.057,2.569,2.818v7.922H66.6v-8.4c.009-3.162-1.8-4.966-4.52-4.966A3.961,3.961,0,0,0,58.142-23.9h-.155v-2.243H55.015v13.2h3.11Zm14.753-9.864h-3.11v17.6h3.11ZM81.832-12.69c3.867,0,6.324-2.724,6.324-6.805s-2.457-6.822-6.324-6.822-6.324,2.732-6.324,6.822S77.965-12.69,81.832-12.69Zm.017-2.492c-2.14,0-3.188-1.908-3.188-4.322s1.048-4.348,3.188-4.348C83.954-23.852,85-21.919,85-19.5S83.954-15.182,81.849-15.182Zm12.734,2.5a4.076,4.076,0,0,0,3.875-2.079h.1v1.813h2.99v-8.833c0-3.489-2.844-4.537-5.362-4.537-2.775,0-4.906,1.237-5.594,3.643l2.9.412a2.635,2.635,0,0,1,2.707-1.676c1.444,0,2.234.739,2.234,2.036v.052c0,.894-.937.937-3.265,1.186-2.561.275-5.009,1.04-5.009,4.013C90.166-14.056,92.065-12.682,94.583-12.682Zm.808-2.286c-1.3,0-2.225-.593-2.225-1.736,0-1.194,1.04-1.693,2.432-1.89a9.469,9.469,0,0,0,2.853-.644v1.555A2.81,2.81,0,0,1,95.391-14.967Zm14.195,2.251a3.978,3.978,0,0,0,3.781-2.311h.189v2.079h3.059v-17.6H113.5v6.582h-.129a3.915,3.915,0,0,0-3.772-2.354c-3.05,0-5.448,2.389-5.448,6.788C104.146-15.182,106.475-12.716,109.586-12.716Zm.868-2.552c-2.054,0-3.136-1.8-3.136-4.279,0-2.457,1.065-4.219,3.136-4.219,2,0,3.1,1.658,3.1,4.219S112.438-15.268,110.453-15.268Zm19.917-7.39c-.43-2.234-2.217-3.66-5.31-3.66-3.179,0-5.345,1.564-5.336,4-.009,1.925,1.177,3.2,3.712,3.721l2.251.473c1.212.266,1.779.756,1.779,1.5,0,.9-.98,1.581-2.457,1.581a2.364,2.364,0,0,1-2.621-1.8l-3.033.292c.387,2.423,2.423,3.858,5.662,3.858,3.3,0,5.628-1.71,5.637-4.21-.009-1.882-1.22-3.033-3.712-3.574l-2.251-.481c-1.34-.3-1.873-.765-1.865-1.529-.009-.894.98-1.512,2.277-1.512a2.307,2.307,0,0,1,2.432,1.65Z" transform="translate(-1463.938 9236.191)" fill="#09102a"/>
    </g>
  </g>
</svg>
